<?xml version="1.0" encoding="UTF-8"?>
<svg id="Logos" xmlns="http://www.w3.org/2000/svg" version="1.1" viewBox="0 0 495.1 133.5">
  <!-- Generator: Adobe Illustrator 29.0.0, SVG Export Plug-In . SVG Version: 2.1.0 Build 186)  -->
  <path d="M363.3,27.6c-11.4,0-21,3.9-27.8,11.3-6.6,7.3-10.2,17.4-10.2,29.3s3.4,21.9,9.8,29.1c6.8,7.6,16.5,11.7,28.2,11.7s17.6-2.5,23.8-7.4c5.6-4.4,9.6-10.8,11.7-18.5l.4-1.5h-16.9l-.2.9c-.5,1.8-1.9,5.2-5,8-3.4,3-7.9,4.6-13.4,4.6s-11.9-2.4-15.7-6.8c-3.1-3.8-5.1-9-5.4-14.7h57v-1.1c.3-1.2.3-3.5.3-5.6,0-11.8-3.3-21.6-9.5-28.4-6.4-7-15.7-10.7-27-10.7h0v-.2ZM342.5,59.7c1.3-10.8,9.4-18,20.3-18s10.7,1.9,14.3,5.5c3.2,3.2,5,7.6,5.2,12.6h-39.8Z"/>
  <path d="M314.6,34.1c-4.6-4.2-10.9-6.4-18.4-6.4-12.7,0-20,5.6-23.6,9.6v-7.5h-16.7v76.9h16.7v-46.9c0-5.2,1.8-9.6,5.1-12.7,3.4-3.1,8.2-4.8,13.9-4.8s8.3,1.4,10.6,4.2c2.1,2.6,3.2,6.4,3.2,11.3v48.9h16.9v-52.9c0-8.4-2.6-15.2-7.6-19.8h-.1Z"/>
  <rect x="230.5" y="1.2" width="18.6" height="17.9"/>
  <rect x="231.5" y="29.9" width="16.7" height="76.9"/>
  <path d="M206.9,37c-5.7-6.1-13.1-9.2-22-9.2s-18.2,3.3-24.2,9.6c-6.4,6.7-9.8,16.4-9.8,28.1s3.4,21.3,9.8,27.9c6.1,6.3,14.4,9.6,24.2,9.6s16.7-3.1,22-9.3v6.9c0,6.6-1.6,11.3-4.8,14.4-3.2,3-7.9,4.4-14.6,4.4s-9.7-1.1-12.6-3.2c-2.5-1.8-4.1-4.4-4.9-7.8l-.2-.9h-17.1v1.3c.9,7.3,4.3,13.4,9.9,17.7,6.1,4.7,14.5,7,24.9,7s20.1-2.7,26.2-8.2c6.5-5.8,9.9-14.4,9.9-25.6V29.9h-16.7v7h0ZM201.7,83c-3.3,3.8-8,5.8-14.1,5.8s-11.2-2.2-14.6-6.5c-3.1-4-4.8-9.8-4.8-16.8s1.6-12.8,4.8-16.8c3.4-4.3,8.3-6.5,14.6-6.5s10.9,1.9,14.1,5.7c3.4,4,5.1,9.9,5.1,17.6s-1.7,13.6-5.1,17.6h0Z"/>
  <path d="M140.2,34.1c-4.6-4.2-10.9-6.4-18.4-6.4-12.7,0-20,5.6-23.6,9.6v-7.5h-16.7v76.9h16.7v-46.9c0-5.2,1.8-9.6,5.1-12.7,3.4-3.1,8.2-4.8,13.8-4.8s8.3,1.4,10.6,4.2c2.1,2.6,3.2,6.4,3.2,11.3v48.9h16.9v-52.9c0-8.4-2.6-15.2-7.6-19.8h0Z"/>
  <polygon points="69.1 43.5 36.9 43.5 36.9 29.9 18.5 29.9 18.5 16.3 76.3 16.3 76.3 0 0 0 0 43.5 18.5 43.5 18.5 59.8 69.1 59.8 69.1 43.5"/>
  <polygon points="18.5 59.8 0 59.8 0 106.8 77.7 106.8 77.7 90.5 18.5 90.5 18.5 59.8"/>
  <g>
    <path d="M418.3,29.9v76.8h76.8V29.9h-76.8ZM445.2,95.6h-3.4v-9.7h-10.6v9.7h-3.3v-21.6h3.3v9.1h10.6v-9.1h3.4v21.6ZM463.7,85.3c-1.3,1.1-3,1.6-5.2,1.6h-5.7v8.8h-3.3v-21.6h9c2.2,0,3.9.5,5.2,1.6s1.9,2.7,1.9,4.9-.6,3.8-1.9,4.8h0ZM471.7,95.6h-3.3v-21.6h3.3v21.6Z"/>
    <path d="M458.4,76.9h-5.5v7.1h5.5c2.5,0,3.8-1.2,3.8-3.5s-1.3-3.6-3.8-3.6Z"/>
  </g>
</svg>