<?xml version="1.0" encoding="UTF-8" standalone="no"?>
<!-- Created with Inkscape (http://www.inkscape.org/) -->

<svg
   width="210mm"
   height="297mm"
   viewBox="0 0 210 297"
   version="1.1"
   id="svg5"
   sodipodi:docname="showdown_t-shirt_part_cutout.svg"
   inkscape:version="1.1.1 (3bf5ae0d25, 2021-09-20)"
   xmlns:inkscape="http://www.inkscape.org/namespaces/inkscape"
   xmlns:sodipodi="http://sodipodi.sourceforge.net/DTD/sodipodi-0.dtd"
   xmlns="http://www.w3.org/2000/svg"
   xmlns:svg="http://www.w3.org/2000/svg">
  <sodipodi:namedview
     id="namedview7"
     pagecolor="#ffffff"
     bordercolor="#666666"
     borderopacity="1.0"
     inkscape:pageshadow="2"
     inkscape:pageopacity="0.0"
     inkscape:pagecheckerboard="0"
     inkscape:document-units="mm"
     showgrid="false"
     inkscape:zoom="0.3429784"
     inkscape:cx="537.93476"
     inkscape:cy="664.7649"
     inkscape:window-width="1920"
     inkscape:window-height="974"
     inkscape:window-x="-11"
     inkscape:window-y="-11"
     inkscape:window-maximized="1"
     inkscape:current-layer="layer1" />
  <defs
     id="defs2" />
  <g
     inkscape:label="Ebene 1"
     inkscape:groupmode="layer"
     id="layer1">
    <path
       id="rect58564"
       style="fill:#c8c8c8;fill-opacity:1;fill-rule:evenodd;stroke-width:0.999999"
       d="M 56.855469 64.144531 L 56.855469 742.0293 L 774.10156 742.0293 L 774.10156 64.144531 L 56.855469 64.144531 z M 273.41016 122.93164 C 278.39279 122.93164 282.63108 123.73742 286.125 125.34766 C 289.6493 126.9579 291.97353 128.99226 293.09766 131.45312 C 294.25217 133.88368 294.82813 138.03083 294.82812 143.89453 L 294.82812 146.81055 L 277.00977 146.81055 L 277.00977 141.3418 C 277.00977 138.78972 276.7819 137.16558 276.32617 136.4668 C 275.87044 135.76802 275.11017 135.41797 274.04688 135.41797 C 272.89236 135.41797 272.01193 135.88824 271.4043 136.83008 C 270.82704 137.77192 270.53906 139.20118 270.53906 141.11523 C 270.53906 143.57617 270.87261 145.42817 271.54102 146.67383 C 272.17904 147.91948 273.98742 149.4234 276.96484 151.18555 C 285.50215 156.25932 290.87978 160.42297 293.09766 163.67383 C 295.31553 166.92469 296.42383 172.1656 296.42383 179.39648 C 296.42383 184.65255 295.80034 188.52626 294.55469 191.01758 C 293.33941 193.50889 290.96961 195.60525 287.44531 197.30664 C 283.92101 198.97764 279.81944 199.8125 275.14062 199.8125 C 270.00616 199.8125 265.61653 198.84093 261.9707 196.89648 C 258.35526 194.95204 255.98546 192.4746 254.86133 189.4668 C 253.7372 186.45899 253.17578 182.19161 253.17578 176.66211 L 253.17578 171.83008 L 270.99414 171.83008 L 270.99414 180.80859 C 270.99414 183.57335 271.23655 185.35077 271.72266 186.14062 C 272.23915 186.93056 273.13607 187.32617 274.41211 187.32617 C 275.68815 187.32617 276.63064 186.82487 277.23828 185.82227 C 277.8763 184.81966 278.19531 183.33029 278.19531 181.35547 C 278.19531 177.01086 277.60286 174.17079 276.41797 172.83398 C 275.20269 171.49718 272.20941 169.2641 267.43945 166.13477 C 262.6695 162.97505 259.51041 160.6799 257.96094 159.25195 C 256.41146 157.824 255.11892 155.84982 254.08594 153.32812 C 253.08333 150.8065 252.58203 147.58528 252.58203 143.66602 C 252.58203 138.01498 253.29666 133.88433 254.72461 131.27148 C 256.18294 128.65864 258.52171 126.62239 261.74219 125.16406 C 264.96267 123.67535 268.85287 122.93164 273.41016 122.93164 z M 210.83789 124.48047 L 230.02344 124.48047 L 230.02344 198.26367 L 210.83789 198.26367 L 210.83789 124.48047 z M 302.16602 124.48047 L 321.35156 124.48047 L 321.35156 179.80664 C 321.35156 183.02712 321.51931 185.09245 321.85352 186.00391 C 322.2181 186.88498 322.93273 187.32617 323.99609 187.32617 C 325.21137 187.32617 325.98611 186.83941 326.32031 185.86719 C 326.68489 184.86458 326.86719 182.52582 326.86719 178.84961 L 326.86719 124.48047 L 346.05273 124.48047 L 346.05273 173.79102 C 346.05273 179.38128 345.87044 183.31511 345.50586 185.59375 C 345.14128 187.84201 344.06206 190.16624 342.26953 192.56641 C 340.477 194.93619 338.1072 196.74458 335.16016 197.99023 C 332.24349 199.20551 328.79643 199.8125 324.81641 199.8125 C 320.41103 199.8125 316.52083 199.08333 313.14844 197.625 C 309.77605 196.16667 307.25499 194.26714 305.58398 191.92773 C 303.91298 189.58833 302.92491 187.12738 302.62109 184.54492 C 302.31728 181.93208 302.16602 176.46331 302.16602 168.13867 L 302.16602 124.48047 z M 353.48047 124.48047 L 367.0625 124.48047 C 376.11632 124.48047 382.23764 124.83052 385.42773 125.5293 C 388.64819 126.22808 391.26046 128.01997 393.26562 130.90625 C 395.3012 133.76215 396.32031 138.334 396.32031 144.62305 C 396.32031 150.36523 395.60567 154.2244 394.17773 156.19922 C 392.74978 158.17404 389.9388 159.35894 385.74609 159.75391 C 389.54384 160.69574 392.09594 161.95725 393.40234 163.53711 C 394.70878 165.11697 395.51454 166.57531 395.81836 167.91211 C 396.15255 169.21853 396.32031 172.84788 396.32031 178.80273 L 396.32031 198.26367 L 378.5 198.26367 L 378.5 173.74414 C 378.5 169.7945 378.18099 167.35004 377.54297 166.4082 C 376.93533 165.46637 375.31119 164.99414 372.66797 164.99414 L 372.66797 198.26367 L 353.48047 198.26367 L 353.48047 124.48047 z M 399.37305 124.48047 L 419.60742 124.48047 C 421.94685 144.80595 423.61851 161.987 424.62109 176.02344 C 425.6237 161.83509 426.67192 149.22589 427.76562 138.19727 L 429.08594 124.48047 L 449.32031 124.48047 L 439.56836 198.26367 L 410.44727 198.26367 L 399.37305 124.48047 z M 452.60156 124.48047 L 471.78906 124.48047 L 471.78906 198.26367 L 452.60156 198.26367 L 452.60156 124.48047 z M 475.11523 124.48047 L 495.34961 124.48047 C 497.68901 144.80595 499.36067 161.987 500.36328 176.02344 C 501.36589 161.83509 502.41407 149.22589 503.50781 138.19727 L 504.82812 124.48047 L 525.0625 124.48047 L 515.31055 198.26367 L 486.18945 198.26367 L 475.11523 124.48047 z M 528.34375 124.48047 L 560.33594 124.48047 L 560.33594 139.24609 L 547.53125 139.24609 L 547.53125 153.23633 L 559.51562 153.23633 L 559.51562 167.27344 L 547.53125 167.27344 L 547.53125 183.49805 L 561.61328 183.49805 L 561.61328 198.26367 L 528.34375 198.26367 L 528.34375 124.48047 z M 567.12695 124.48047 L 581.48242 124.48047 C 590.74889 124.48047 597.00694 124.90712 600.25781 125.75781 C 603.53905 126.60851 606.03103 128.00478 607.73242 129.94922 C 609.43379 131.89366 610.49653 134.06663 610.92188 136.4668 C 611.34722 138.83659 611.56055 143.51412 611.56055 150.50195 L 611.56055 176.3418 C 611.56055 182.96505 611.24153 187.40213 610.60352 189.65039 C 609.99587 191.86827 608.91667 193.61458 607.36719 194.89062 C 605.81773 196.13628 603.90365 197.01671 601.625 197.5332 C 599.34635 198.01931 595.91384 198.26367 591.32617 198.26367 L 567.12695 198.26367 L 567.12695 124.48047 z M 372.66797 137.10352 L 372.66797 153.50977 C 374.82508 153.50977 376.329 153.22179 377.17969 152.64453 C 378.06077 152.03689 378.5 150.10828 378.5 146.85742 L 378.5 142.80078 C 378.5 140.46138 378.07531 138.92643 377.22461 138.19727 C 376.4043 137.4681 374.88585 137.10352 372.66797 137.10352 z M 586.3125 137.10352 L 586.3125 185.63867 C 589.07725 185.63867 590.77996 185.0918 591.41797 183.99805 C 592.05598 182.87392 592.37305 179.85155 592.37305 174.92969 L 592.37305 146.26367 C 592.37305 142.92166 592.26735 140.77973 592.05469 139.83789 C 591.84203 138.89605 591.35722 138.21245 590.59766 137.78711 C 589.8381 137.33138 588.40883 137.10352 586.3125 137.10352 z "
       transform="scale(0.26458333)" />
    <g
       aria-label="I SURVIVED
"
       id="text34202"
       style="font-size:24.6944px;font-family:Impact;-inkscape-font-specification:'Impact, Normal';stroke-width:0.264583" />
    <g
       aria-label="HPI SHOWDOWN"
       id="text47216"
       style="font-size:28.2222px;font-family:Impact;-inkscape-font-specification:'Impact, Normal';stroke-width:0.264583">
      <path
         d="m 36.09695,87.232439 v 22.310421 h -5.801537 v -9.37065 h -1.736327 v 9.37065 H 22.75755 V 87.232439 h 5.801536 v 7.978836 h 1.736327 v -7.978836 z"
         id="path58422" />
      <path
         d="m 38.425833,87.232439 h 5.842878 q 2.370224,0 3.638018,0.37207 1.281575,0.37207 1.915472,1.074869 0.647678,0.702799 0.868163,1.708767 0.234267,0.992186 0.234267,3.086803 v 1.943032 q 0,2.135958 -0.440972,3.114365 -0.440972,0.978406 -1.626084,1.502065 -1.171332,0.52365 -3.073023,0.52365 H 44.22737 v 8.9848 h -5.801537 z m 5.801537,3.817163 v 5.677514 q 0.248047,0.01378 0.427191,0.01378 0.799262,0 1.10243,-0.38585 0.316949,-0.399631 0.316949,-1.639865 v -1.832789 q 0,-1.143771 -0.35829,-1.48828 -0.35829,-0.34451 -1.48828,-0.34451 z"
         id="path58424" />
      <path
         d="M 58.393593,87.232439 V 109.54286 H 52.592057 V 87.232439 Z"
         id="path58426" />
      <path
         d="m 77.989282,93.984822 h -5.388126 v -1.653645 q 0,-1.157551 -0.206705,-1.4745 -0.206706,-0.316948 -0.689019,-0.316948 -0.523654,0 -0.799262,0.427191 -0.261827,0.427192 -0.261827,1.295355 0,1.11621 0.303169,1.681206 0.289387,0.564995 1.639864,1.364256 3.872284,2.301323 4.878252,3.775822 1.005967,1.474501 1.005967,4.754231 0,2.384 -0.564995,3.51399 -0.551215,1.12999 -2.149738,1.90169 -1.598524,0.75792 -3.720701,0.75792 -2.328883,0 -3.982528,-0.88194 -1.639864,-0.88194 -2.149738,-2.2462 -0.509873,-1.36426 -0.509873,-3.87228 v -1.46072 h 5.388125 v 2.71473 q 0,1.25401 0.220486,1.6123 0.234266,0.35829 0.813042,0.35829 0.578776,0 0.854383,-0.45475 0.289388,-0.45475 0.289388,-1.35048 0,-1.97059 -0.537435,-2.57693 -0.551214,-0.60633 -2.714733,-2.02571 -2.163518,-1.433159 -2.866317,-2.080837 -0.702799,-0.647677 -1.171332,-1.791448 -0.454752,-1.143771 -0.454752,-2.921439 0,-2.563149 0.647677,-3.748261 0.661458,-1.185112 2.122178,-1.84657 1.460719,-0.675238 3.527775,-0.675238 2.259981,0 3.844724,0.730359 1.598523,0.73036 2.108397,1.84657 0.523654,1.10243 0.523654,3.762042 z"
         id="path58428" />
      <path
         d="m 93.630004,87.232439 v 22.310421 h -5.801536 v -9.37065 h -1.736327 v 9.37065 H 80.290604 V 87.232439 h 5.801537 v 7.978836 h 1.736327 v -7.978836 z"
         id="path58430" />
      <path
         d="m 109.21561,100.29623 q 0,3.36241 -0.16537,4.76801 -0.15158,1.39182 -0.99218,2.54937 -0.82683,1.15755 -2.2462,1.77767 -1.41938,0.62011 -3.30729,0.62011 -1.79145,0 -3.224611,-0.57877 -1.419378,-0.59256 -2.287542,-1.76389 -0.868163,-1.17133 -1.033528,-2.54937 -0.165364,-1.37803 -0.165364,-4.82313 v -3.817161 q 0,-3.362411 0.151584,-4.754228 0.165365,-1.405598 0.992187,-2.56315 0.840603,-1.157551 2.259981,-1.777668 1.419383,-0.620116 3.307293,-0.620116 1.79144,0 3.21082,0.592556 1.43316,0.578775 2.30133,1.750107 0.86816,1.171332 1.03352,2.549369 0.16537,1.378037 0.16537,4.82313 z m -5.80154,-7.331156 q 0,-1.557182 -0.17914,-1.984373 -0.16537,-0.440972 -0.7028,-0.440972 -0.45476,0 -0.7028,0.358289 -0.23427,0.34451 -0.23427,2.067056 v 10.417966 q 0,1.94303 0.15159,2.39778 0.16536,0.45475 0.74414,0.45475 0.59255,0 0.75792,-0.52365 0.16536,-0.52366 0.16536,-2.49425 z"
         id="path58432" />
      <path
         d="m 133.20723,87.232439 -2.57693,22.310421 h -7.24847 q -0.99219,-5.14008 -1.75011,-11.685754 -0.34451,2.797414 -1.6123,11.685754 h -7.20714 l -2.59071,-22.310421 h 5.63618 l 0.59255,7.785911 0.60634,7.5103 q 0.31695,-5.829095 1.59852,-15.296211 h 6.0358 q 0.12403,0.978407 0.6339,7.358719 l 0.6339,8.474932 q 0.48231,-8.089081 1.6123,-15.833651 z"
         id="path58434" />
      <path
         d="m 134.36479,87.232439 h 4.34082 q 4.20301,0 5.67751,0.385851 1.48828,0.38585 2.25998,1.267794 0.7717,0.881944 0.96463,1.970593 0.19292,1.074869 0.19292,4.244355 v 7.813468 q 0,3.00412 -0.28939,4.02387 -0.2756,1.00597 -0.9784,1.58474 -0.7028,0.565 -1.73633,0.79927 -1.03353,0.22048 -3.11436,0.22048 h -7.31738 z m 5.80154,3.817163 V 105.7257 q 1.25401,0 1.5434,-0.49609 0.28938,-0.50988 0.28938,-2.7423 v -8.667853 q 0,-1.515841 -0.0965,-1.943032 -0.0965,-0.427192 -0.44097,-0.620117 -0.34451,-0.206706 -1.29535,-0.206706 z"
         id="path58436" />
      <path
         d="m 163.22089,100.29623 q 0,3.36241 -0.16537,4.76801 -0.15158,1.39182 -0.99218,2.54937 -0.82683,1.15755 -2.2462,1.77767 -1.41938,0.62011 -3.30729,0.62011 -1.79145,0 -3.22461,-0.57877 -1.41938,-0.59256 -2.28754,-1.76389 -0.86817,-1.17133 -1.03353,-2.54937 -0.16537,-1.37803 -0.16537,-4.82313 v -3.817161 q 0,-3.362411 0.15159,-4.754228 0.16536,-1.405598 0.99219,-2.56315 0.8406,-1.157551 2.25998,-1.777668 1.41937,-0.620116 3.30729,-0.620116 1.79144,0 3.21082,0.592556 1.43316,0.578775 2.30132,1.750107 0.86817,1.171332 1.03353,2.549369 0.16537,1.378037 0.16537,4.82313 z m -5.80154,-7.331156 q 0,-1.557182 -0.17914,-1.984373 -0.16537,-0.440972 -0.7028,-0.440972 -0.45476,0 -0.7028,0.358289 -0.23427,0.34451 -0.23427,2.067056 v 10.417966 q 0,1.94303 0.15159,2.39778 0.16536,0.45475 0.74414,0.45475 0.59255,0 0.75792,-0.52365 0.16536,-0.52366 0.16536,-2.49425 z"
         id="path58438" />
      <path
         d="m 187.21251,87.232439 -2.57693,22.310421 h -7.24848 q -0.99219,-5.14008 -1.75011,-11.685754 -0.34451,2.797414 -1.6123,11.685754 h -7.20714 l -2.59071,-22.310421 h 5.63618 l 0.59255,7.785911 0.60634,7.5103 q 0.31695,-5.829095 1.59852,-15.296211 h 6.03581 q 0.12402,0.978407 0.63389,7.358719 l 0.6339,8.474932 q 0.48231,-8.089081 1.6123,-15.833651 z"
         id="path58440" />
      <path
         d="m 201.32362,87.232439 v 22.310421 h -5.08496 l -3.0179,-10.142352 v 10.142352 h -4.85069 V 87.232439 h 4.85069 l 3.25217,10.045892 V 87.232439 Z"
         id="path58442" />
    </g>
    <g
       aria-label="The Pokerbot Competition"
       id="text56306"
       style="font-size:17.6389px;font-family:Impact;-inkscape-font-specification:'Impact, Normal';stroke-width:0.264583">
      <path
         d="m 25.769933,141.1131 v 2.79052 h -2.153186 v 11.15351 h -3.625966 v -11.15351 h -2.144573 v -2.79052 z"
         id="path58467" />
      <path
         d="m 29.972953,141.1131 v 3.13503 q 0.447862,-0.41341 0.964627,-0.62011 0.525377,-0.20671 1.119657,-0.20671 0.912951,0 1.550294,0.46509 0.645956,0.46509 0.78376,1.07659 0.146416,0.60289 0.146416,2.21348 v 7.88066 h -3.479549 v -8.0443 q 0,-0.99908 -0.103352,-1.2833 -0.09474,-0.28422 -0.43925,-0.28422 -0.318672,0 -0.430638,0.29283 -0.111965,0.29283 -0.111965,1.16272 v 8.15627 H 26.493404 V 141.1131 Z"
         id="path58469" />
      <path
         d="m 43.61554,149.54497 h -4.504465 v 2.47186 q 0,0.77515 0.111965,0.99908 0.111966,0.22393 0.430638,0.22393 0.396186,0 0.525377,-0.29283 0.137804,-0.30145 0.137804,-1.15411 v -1.50723 h 3.298681 v 0.84405 q 0,1.05936 -0.137804,1.62781 -0.129191,0.56844 -0.620117,1.21439 -0.490927,0.64596 -1.248848,0.97324 -0.749309,0.31867 -1.886191,0.31867 -1.102432,0 -1.946481,-0.31867 -0.844049,-0.31867 -1.31775,-0.86988 -0.465088,-0.55983 -0.645955,-1.22301 -0.180868,-0.6718 -0.180868,-1.94648 v -3.33314 q 0,-1.49861 0.404799,-2.35989 0.404799,-0.86989 1.326363,-1.32636 0.921563,-0.46509 2.118735,-0.46509 1.464166,0 2.411568,0.55983 0.956015,0.55122 1.334976,1.47278 0.387573,0.91295 0.387573,2.57521 z m -3.488161,-1.86035 v -0.83544 q 0,-0.88711 -0.09474,-1.14549 -0.09474,-0.25838 -0.387573,-0.25838 -0.361735,0 -0.447863,0.22393 -0.08613,0.21532 -0.08613,1.17994 v 0.83544 z"
         id="path58471" />
      <path
         d="m 47.964977,141.1131 h 3.651804 q 1.481392,0 2.273764,0.23254 0.800986,0.23254 1.197172,0.67179 0.404799,0.43925 0.542603,1.06798 0.146416,0.62012 0.146416,1.92926 v 1.2144 q 0,1.33497 -0.275607,1.94648 -0.275608,0.6115 -1.016304,0.93879 -0.732084,0.32728 -1.920642,0.32728 h -0.97324 v 5.61551 h -3.625966 z m 3.625966,2.38573 v 3.54845 q 0.155029,0.009 0.266995,0.009 0.499539,0 0.689019,-0.24116 0.198093,-0.24977 0.198093,-1.02491 v -1.1455 q 0,-0.71486 -0.223931,-0.93018 -0.223931,-0.21531 -0.930176,-0.21531 z"
         id="path58473" />
      <path
         d="m 64.587572,147.64156 v 2.79914 q 0,1.54168 -0.15503,2.26515 -0.155029,0.71486 -0.663181,1.34359 -0.508152,0.62012 -1.309137,0.92156 -0.792373,0.29283 -1.825902,0.29283 -1.154108,0 -1.955093,-0.24976 -0.800985,-0.25839 -1.248848,-0.76654 -0.43925,-0.51676 -0.62873,-1.24023 -0.189481,-0.73209 -0.189481,-2.18764 v -2.92833 q 0,-1.59336 0.34451,-2.48909 0.34451,-0.89572 1.240235,-1.43833 0.895726,-0.5426 2.29099,-0.5426 1.171334,0 2.00677,0.35312 0.844049,0.34451 1.300524,0.90434 0.456476,0.55983 0.620118,1.15411 0.172255,0.59428 0.172255,1.80868 z m -3.479549,-0.86128 q 0,-0.8785 -0.09474,-1.10243 -0.09474,-0.23254 -0.404799,-0.23254 -0.310059,0 -0.413412,0.23254 -0.103353,0.22393 -0.103353,1.10243 v 5.15904 q 0,0.80959 0.103353,1.05936 0.103353,0.24116 0.404799,0.24116 0.310059,0 0.404799,-0.22393 0.103353,-0.22393 0.103353,-0.96463 z"
         id="path58475" />
      <path
         d="m 73.226155,143.62802 -1.41249,4.55614 1.834514,6.87297 h -3.350357 l -1.085206,-4.97817 v 4.97817 H 65.733067 V 141.1131 h 3.479549 v 5.85666 l 1.085206,-3.34174 z"
         id="path58477" />
      <path
         d="M 82.045605,149.54497 H 77.54114 v 2.47186 q 0,0.77515 0.111966,0.99908 0.111965,0.22393 0.430637,0.22393 0.396186,0 0.525377,-0.29283 0.137804,-0.30145 0.137804,-1.15411 v -1.50723 h 3.298681 v 0.84405 q 0,1.05936 -0.137804,1.62781 -0.129191,0.56844 -0.620117,1.21439 -0.490927,0.64596 -1.248848,0.97324 -0.749309,0.31867 -1.886191,0.31867 -1.102431,0 -1.94648,-0.31867 -0.844049,-0.31867 -1.31775,-0.86988 -0.465089,-0.55983 -0.645956,-1.22301 -0.180868,-0.6718 -0.180868,-1.94648 v -3.33314 q 0,-1.49861 0.404799,-2.35989 0.404799,-0.86989 1.326363,-1.32636 0.921563,-0.46509 2.118735,-0.46509 1.464167,0 2.411568,0.55983 0.956015,0.55122 1.334976,1.47278 0.387573,0.91295 0.387573,2.57521 z m -3.488161,-1.86035 v -0.83544 q 0,-0.88711 -0.09474,-1.14549 -0.09474,-0.25838 -0.387574,-0.25838 -0.361735,0 -0.447863,0.22393 -0.08613,0.21532 -0.08613,1.17994 v 0.83544 z"
         id="path58479" />
      <path
         d="m 86.662041,143.62802 -0.137804,1.49861 q 0.757921,-1.61058 2.196249,-1.70532 v 4.02215 q -0.956014,0 -1.403877,0.25839 -0.447863,0.25838 -0.551216,0.72347 -0.103352,0.45647 -0.103352,2.11873 v 4.51308 h -3.479549 v -11.42911 z"
         id="path58481" />
      <path
         d="m 92.975181,141.1131 v 3.29868 q 0.430638,-0.49954 0.956015,-0.7407 0.53399,-0.24977 1.154108,-0.24977 0.714858,0 1.240235,0.22393 0.525377,0.22393 0.800985,0.62873 0.275608,0.4048 0.327285,0.79238 0.06029,0.38757 0.06029,1.65364 v 5.15042 q 0,1.25746 -0.172255,1.87758 -0.163642,0.61151 -0.78376,1.06798 -0.620118,0.44786 -1.472779,0.44786 -0.611505,0 -1.145495,-0.26699 -0.525378,-0.267 -0.964628,-0.80099 l -0.223931,0.86128 H 89.495633 V 141.1131 Z m 1.059368,5.76192 q 0,-0.88711 -0.111966,-1.15411 -0.111965,-0.2756 -0.43925,-0.2756 -0.318671,0 -0.413411,0.24115 -0.09474,0.23255 -0.09474,1.18856 v 4.92649 q 0,0.92157 0.103353,1.17995 0.111966,0.25838 0.430638,0.25838 0.327284,0 0.422024,-0.267 0.103353,-0.26699 0.103353,-1.28329 z"
         id="path58483" />
      <path
         d="m 106.53164,147.64156 v 2.79914 q 0,1.54168 -0.15503,2.26515 -0.15503,0.71486 -0.66318,1.34359 -0.50816,0.62012 -1.30914,0.92156 -0.79237,0.29283 -1.8259,0.29283 -1.15411,0 -1.9551,-0.24976 -0.800981,-0.25839 -1.248844,-0.76654 -0.43925,-0.51676 -0.62873,-1.24023 -0.189481,-0.73209 -0.189481,-2.18764 v -2.92833 q 0,-1.59336 0.34451,-2.48909 0.34451,-0.89572 1.240235,-1.43833 0.89573,-0.5426 2.29099,-0.5426 1.17133,0 2.00677,0.35312 0.84405,0.34451 1.30052,0.90434 0.45648,0.55983 0.62012,1.15411 0.17226,0.59428 0.17226,1.80868 z m -3.47955,-0.86128 q 0,-0.8785 -0.0947,-1.10243 -0.0947,-0.23254 -0.4048,-0.23254 -0.31006,0 -0.41341,0.23254 -0.10336,0.22393 -0.10336,1.10243 v 5.15904 q 0,0.80959 0.10336,1.05936 0.10335,0.24116 0.4048,0.24116 0.31005,0 0.4048,-0.22393 0.10335,-0.22393 0.10335,-0.96463 z"
         id="path58485" />
      <path
         d="m 111.34617,142.10356 v 1.80006 h 0.93878 v 1.80868 h -0.93878 v 6.11505 q 0,1.12827 0.11196,1.25746 0.12058,0.12919 0.97324,0.12919 v 1.84313 h -1.40388 q -1.18856,0 -1.69671,-0.0947 -0.50815,-0.10335 -0.89572,-0.45648 -0.38758,-0.36173 -0.48232,-0.81821 -0.0947,-0.46509 -0.0947,-2.17041 v -5.80499 h -0.74931 v -1.80868 h 0.74931 v -1.80006 z"
         id="path58487" />
      <path
         d="m 124.73037,147.19369 h -3.62597 v -2.42879 q 0,-1.05937 -0.12058,-1.31775 -0.11196,-0.267 -0.50815,-0.267 -0.44786,0 -0.56844,0.31868 -0.12058,0.31867 -0.12058,1.37803 v 6.47679 q 0,1.0163 0.12058,1.32636 0.12058,0.31006 0.5426,0.31006 0.4048,0 0.52538,-0.31006 0.12919,-0.31006 0.12919,-1.45555 v -1.74839 h 3.62597 v 0.5426 q 0,2.1618 -0.31006,3.06614 -0.30145,0.90434 -1.3522,1.58475 -1.04214,0.6804 -2.57521,0.6804 -1.59336,0 -2.62689,-0.57705 -1.03353,-0.57706 -1.36943,-1.59336 -0.33589,-1.02492 -0.33589,-3.07475 v -4.07383 q 0,-1.50723 0.10335,-2.25654 0.10335,-0.75792 0.6115,-1.45555 0.51677,-0.69763 1.42111,-1.09382 0.91295,-0.4048 2.09289,-0.4048 1.60197,0 2.64412,0.62012 1.04214,0.62012 1.36942,1.55029 0.32729,0.92157 0.32729,2.87666 z"
         id="path58489" />
      <path
         d="m 133.79959,147.64156 v 2.79914 q 0,1.54168 -0.15503,2.26515 -0.15503,0.71486 -0.66318,1.34359 -0.50815,0.62012 -1.30914,0.92156 -0.79237,0.29283 -1.8259,0.29283 -1.15411,0 -1.95509,-0.24976 -0.80099,-0.25839 -1.24885,-0.76654 -0.43925,-0.51676 -0.62873,-1.24023 -0.18948,-0.73209 -0.18948,-2.18764 v -2.92833 q 0,-1.59336 0.34451,-2.48909 0.34451,-0.89572 1.24023,-1.43833 0.89573,-0.5426 2.29099,-0.5426 1.17134,0 2.00677,0.35312 0.84405,0.34451 1.30053,0.90434 0.45647,0.55983 0.62011,1.15411 0.17226,0.59428 0.17226,1.80868 z m -3.47955,-0.86128 q 0,-0.8785 -0.0947,-1.10243 -0.0947,-0.23254 -0.4048,-0.23254 -0.31006,0 -0.41341,0.23254 -0.10335,0.22393 -0.10335,1.10243 v 5.15904 q 0,0.80959 0.10335,1.05936 0.10335,0.24116 0.4048,0.24116 0.31006,0 0.4048,-0.22393 0.10335,-0.22393 0.10335,-0.96463 z"
         id="path58491" />
      <path
         d="m 138.38157,143.62802 -0.0603,1.0852 q 0.4048,-0.64595 0.96463,-0.96462 0.55983,-0.32729 1.27469,-0.32729 1.39526,0 2.19625,1.29191 0.43925,-0.64595 0.99046,-0.96462 0.55122,-0.32729 1.22301,-0.32729 0.88712,0 1.46417,0.43064 0.58567,0.43064 0.74931,1.05937 0.16364,0.62011 0.16364,2.02399 v 8.12182 h -3.3762 v -7.45003 q 0,-1.46416 -0.10335,-1.80867 -0.0947,-0.35312 -0.45647,-0.35312 -0.37035,0 -0.48232,0.34451 -0.10335,0.34451 -0.10335,1.81728 v 7.45003 h -3.3762 v -7.26054 q 0,-1.67949 -0.0861,-2.01539 -0.0775,-0.33589 -0.44787,-0.33589 -0.23254,0 -0.39618,0.18086 -0.16365,0.17226 -0.18087,0.43064 -0.0172,0.24977 -0.0172,1.07659 v 7.92373 h -3.37619 v -11.42911 z"
         id="path58493" />
      <path
         d="m 152.08445,143.62802 -0.0603,1.00769 q 0.46509,-0.61151 1.02492,-0.91295 0.55983,-0.30145 1.22301,-0.30145 0.8096,0 1.39526,0.43925 0.59428,0.43064 0.7407,0.99908 0.14642,0.56844 0.14642,1.92925 v 4.81453 q 0,1.55891 -0.18948,2.22209 -0.18087,0.65457 -0.75793,1.05075 -0.56844,0.38757 -1.37804,0.38757 -0.64595,0 -1.19717,-0.30144 -0.55121,-0.30145 -1.00769,-0.89573 v 2.61828 h -3.47955 v -13.05692 z m 0.99047,3.32452 q 0,-1.05937 -0.0775,-1.2833 -0.0775,-0.22393 -0.43064,-0.22393 -0.3445,0 -0.44786,0.25838 -0.0947,0.25838 -0.0947,1.24885 v 4.73701 q 0,1.03353 0.10336,1.29191 0.10335,0.25838 0.44786,0.25838 0.33589,0 0.41341,-0.23254 0.0861,-0.24116 0.0861,-1.15411 z"
         id="path58495" />
      <path
         d="m 165.58062,149.54497 h -4.50446 v 2.47186 q 0,0.77515 0.11196,0.99908 0.11197,0.22393 0.43064,0.22393 0.39619,0 0.52538,-0.29283 0.1378,-0.30145 0.1378,-1.15411 v -1.50723 h 3.29868 v 0.84405 q 0,1.05936 -0.1378,1.62781 -0.12919,0.56844 -0.62012,1.21439 -0.49092,0.64596 -1.24885,0.97324 -0.7493,0.31867 -1.88619,0.31867 -1.10243,0 -1.94648,-0.31867 -0.84405,-0.31867 -1.31775,-0.86988 -0.46508,-0.55983 -0.64595,-1.22301 -0.18087,-0.6718 -0.18087,-1.94648 v -3.33314 q 0,-1.49861 0.4048,-2.35989 0.4048,-0.86989 1.32636,-1.32636 0.92157,-0.46509 2.11874,-0.46509 1.46416,0 2.41157,0.55983 0.95601,0.55122 1.33497,1.47278 0.38757,0.91295 0.38757,2.57521 z m -3.48816,-1.86035 v -0.83544 q 0,-0.88711 -0.0947,-1.14549 -0.0947,-0.25838 -0.38757,-0.25838 -0.36174,0 -0.44786,0.22393 -0.0861,0.21532 -0.0861,1.17994 v 0.83544 z"
         id="path58497" />
      <path
         d="m 170.38652,142.10356 v 1.80006 h 0.93879 v 1.80868 h -0.93879 v 6.11505 q 0,1.12827 0.11197,1.25746 0.12058,0.12919 0.97324,0.12919 v 1.84313 h -1.40388 q -1.18856,0 -1.69671,-0.0947 -0.50815,-0.10335 -0.89572,-0.45648 -0.38758,-0.36173 -0.48232,-0.81821 -0.0947,-0.46509 -0.0947,-2.17041 v -5.80499 h -0.74931 v -1.80868 h 0.74931 v -1.80006 z"
         id="path58499" />
      <path
         d="m 175.67476,141.1131 v 1.81728 h -3.58291 v -1.81728 z m 0,2.51492 v 11.42911 h -3.58291 v -11.42911 z"
         id="path58501" />
      <path
         d="m 180.59263,142.10356 v 1.80006 h 0.93878 v 1.80868 h -0.93878 v 6.11505 q 0,1.12827 0.11196,1.25746 0.12058,0.12919 0.97324,0.12919 v 1.84313 h -1.40388 q -1.18856,0 -1.69671,-0.0947 -0.50815,-0.10335 -0.89572,-0.45648 -0.38758,-0.36173 -0.48232,-0.81821 -0.0947,-0.46509 -0.0947,-2.17041 v -5.80499 h -0.74931 v -1.80868 h 0.74931 v -1.80006 z"
         id="path58503" />
      <path
         d="m 185.88086,141.1131 v 1.81728 h -3.58291 v -1.81728 z m 0,2.51492 v 11.42911 h -3.58291 v -11.42911 z"
         id="path58505" />
      <path
         d="m 195.00174,147.64156 v 2.79914 q 0,1.54168 -0.15502,2.26515 -0.15503,0.71486 -0.66319,1.34359 -0.50815,0.62012 -1.30913,0.92156 -0.79238,0.29283 -1.8259,0.29283 -1.15411,0 -1.9551,-0.24976 -0.80098,-0.25839 -1.24885,-0.76654 -0.43925,-0.51676 -0.62873,-1.24023 -0.18948,-0.73209 -0.18948,-2.18764 v -2.92833 q 0,-1.59336 0.34451,-2.48909 0.34451,-0.89572 1.24024,-1.43833 0.89572,-0.5426 2.29099,-0.5426 1.17133,0 2.00677,0.35312 0.84405,0.34451 1.30052,0.90434 0.45648,0.55983 0.62012,1.15411 0.17225,0.59428 0.17225,1.80868 z m -3.47954,-0.86128 q 0,-0.8785 -0.0947,-1.10243 -0.0947,-0.23254 -0.4048,-0.23254 -0.31006,0 -0.41341,0.23254 -0.10336,0.22393 -0.10336,1.10243 v 5.15904 q 0,0.80959 0.10336,1.05936 0.10335,0.24116 0.40479,0.24116 0.31006,0 0.4048,-0.22393 0.10336,-0.22393 0.10336,-0.96463 z"
         id="path58507" />
      <path
         d="m 199.68708,143.62802 -0.0603,1.05075 q 0.37896,-0.62873 0.92157,-0.93879 0.55121,-0.31867 1.26607,-0.31867 0.89573,0 1.46417,0.42203 0.56844,0.42202 0.73208,1.06798 0.16364,0.63734 0.16364,2.13596 v 8.00985 h -3.47955 v -7.91511 q 0,-1.17995 -0.0775,-1.43833 -0.0775,-0.25838 -0.43064,-0.25838 -0.37035,0 -0.46509,0.30144 -0.0947,0.29284 -0.0947,1.58475 v 7.72563 h -3.47955 v -11.42911 z"
         id="path58509" />
    </g>
  </g>
</svg>
