<?xml version="1.0" encoding="UTF-8" standalone="no"?>
<svg
   xmlns:svg="http://www.w3.org/2000/svg"
   xmlns="http://www.w3.org/2000/svg"
   viewBox="90 138 60 60"
   id="logo-squared">
   <defs>
      <clipPath id="left-half">
         <rect x="420" y="-340" width="24.22" height="60" />
      </clipPath>
      
      <clipPath id="right-half">
         <rect x="444.22" y="-340" width="24.22" height="60" />
      </clipPath>
      <path
         style="display:inline;opacity:1"
         d="m 444.22243,-339.50268
            c -9.226,13.15712 -19.0977,20.72857 -19.2617,30.99333 -0.055,3.3239 1.7421,8.97342 7.3711,10.05478 3.652,0.69833 8.6801,-2.25748 8.7851,-8.26252 -0.016,-1.19555 1.2659,-1.16448 1.2539,0.47372 -0.172,4.73672 -1.6714,10.25156 -4.1914,14.74069 4.0287,0 8.0573,0 12.086,0 -2.52,-4.48913 -4.0194,-10.00397 -4.1914,-14.74069 -0.012,-1.6382 1.2699,-1.66927 1.2539,-0.47372 0.105,6.00504 5.1331,8.96085 8.7851,8.26252 5.629,-1.08136 7.4261,-6.73088 7.3711,-10.05478 -0.164,-10.26476 -10.0357,-17.83621 -19.2617,-30.99333 z"
         id="spade" />
  </defs>
  <g
     id="layer1"
     transform="translate(1416.6068,-718.04301)">
    <g
       transform="matrix(1.06667,0,0,1.06667,-1771.39,1220.88)"
       id="SPADE"
       style="display:inline">
      <use clip-path="url(#right-half)" href="#spade" fill="white" />
      <use clip-path="url(#left-half)" href="#spade" fill="#C8102E" />
    </g>
  </g>
</svg>
